<svg xmlns="http://www.w3.org/2000/svg" fill-rule="evenodd" stroke-linejoin="round" stroke-miterlimit="1.4142" clip-rule="evenodd" viewBox="0 0 27 28">
  <path fill="#b9c7c6" fill-rule="nonzero" d="M3.333 12.071c0-4.823 3.924-8.746 8.745-8.746 4.822 0 8.746 3.923 8.746 8.746 0 2.476-1.044 4.703-2.703 6.295-.121.07-.246.129-.35.232-.037.037-.051.087-.084.127-1.524 1.285-3.464 2.091-5.609 2.091-4.821 0-8.745-3.923-8.745-8.745m22.521 12.252l-4.516-4.513c1.758-2.098 2.818-4.796 2.818-7.739 0-6.66-5.418-12.078-12.078-12.078C5.419-.007 0 5.411 0 12.071c0 6.659 5.419 12.078 12.078 12.078 2.517 0 4.855-.776 6.791-2.098l4.631 4.628c.324.325.75.489 1.177.489.427 0 .852-.164 1.178-.489.65-.65.65-1.705-.001-2.356"/>
</svg>
