<svg xmlns="http://www.w3.org/2000/svg" width="55" height="47" viewBox="0 0 55 47">
  <path fill="#5163BA" fill-rule="evenodd" d="M5.1172,6.0408 C5.8092,5.8468 6.4952,6.3658 6.4952,7.0828 L6.4952,39.1848 C6.4952,39.9018 5.8092,40.4208 5.1172,40.2278 L1.5002,39.2158 C0.6132,38.9678 0.0002,38.1618 0.0002,37.2428 L0.0002,9.0248 C0.0002,8.1068 0.6132,7.2998 1.5002,7.0518 L5.1172,6.0408 Z M18.1082,2.4078 C18.8002,2.2138 19.4872,2.7328 19.4872,3.4498 L19.4872,42.8178 C19.4872,43.5348 18.8002,44.0528 18.1082,43.8608 L14.0472,42.7248 C13.4232,42.5498 12.9912,41.9818 12.9912,41.3348 L12.9912,4.9328 C12.9912,4.2858 13.4232,3.7178 14.0472,3.5428 L18.1082,2.4078 Z M48.4582,23.8478 C49.0622,23.5628 49.0622,22.7048 48.4582,22.4198 L44.1982,20.4198 C43.7652,20.2158 43.4172,19.8688 43.2132,19.4368 L41.2072,15.1898 C40.9222,14.5858 40.0602,14.5858 39.7752,15.1898 L37.7692,19.4368 C37.5652,19.8688 37.2172,20.2158 36.7842,20.4198 L32.5242,22.4198 C31.9202,22.7048 31.9202,23.5628 32.5242,23.8478 L36.7842,25.8478 C37.2172,26.0508 37.5652,26.3988 37.7692,26.8318 L39.7752,31.0788 C40.0602,31.6808 40.9222,31.6808 41.2072,31.0788 L43.2132,26.8318 C43.4172,26.3988 43.7652,26.0508 44.1982,25.8478 L48.4582,23.8478 Z M53.5002,7.0518 C54.3872,7.2998 55.0002,8.1068 55.0002,9.0248 L55.0002,37.2428 C55.0002,38.1618 54.3872,38.9678 53.5002,39.2158 L28.5492,46.1928 C28.1932,46.2928 27.8152,46.2928 27.4582,46.1928 C26.5852,45.9498 25.9822,45.1558 25.9822,44.2518 L25.9822,2.0158 C25.9822,1.1118 26.5852,0.3188 27.4582,0.0748 C27.8152,-0.0252 28.1932,-0.0252 28.5492,0.0748 L53.5002,7.0518 Z"/>
</svg>
