<?xml version="1.0" encoding="UTF-8"?>
<svg width="512px" height="512px" viewBox="0 0 512 512" version="1.1" xmlns="http://www.w3.org/2000/svg" xmlns:xlink="http://www.w3.org/1999/xlink">
    <!-- Generator: Sketch 50.2 (55047) - http://www.bohemiancoding.com/sketch -->
    <title>thumbs-up-solid</title>
    <desc>Created with Sketch.</desc>
    <defs></defs>
    <g id="Page-1" stroke="none" stroke-width="1" fill="none" fill-rule="evenodd" opacity="0.253738839">
        <g id="thumbs-up-solid" fill="#000000" fill-rule="nonzero">
            <path d="M104,224 L24,224 C10.745,224 0,234.745 0,248 L0,488 C0,501.255 10.745,512 24,512 L104,512 C117.255,512 128,501.255 128,488 L128,248 C128,234.745 117.255,224 104,224 Z M64,472 C50.745,472 40,461.255 40,448 C40,434.745 50.745,424 64,424 C77.255,424 88,434.745 88,448 C88,461.255 77.255,472 64,472 Z M384,81.452 C384,123.868 358.03,147.66 350.723,176 L452.446,176 C485.843,176 511.843,203.746 511.999,234.098 C512.083,252.036 504.453,271.347 492.56,283.295 L492.45,283.405 C502.286,306.742 500.687,339.442 483.142,362.874 C491.823,388.769 483.073,420.578 466.76,437.631 C471.058,455.229 469.004,470.206 460.612,482.263 C440.202,511.587 389.616,512 346.839,512 L343.994,511.999 C295.707,511.982 256.188,494.401 224.434,480.274 C208.477,473.175 187.613,464.387 171.783,464.096 C165.243,463.976 160,458.639 160,452.098 L160,238.328 C160,235.128 161.282,232.057 163.558,229.807 C203.172,190.663 220.206,149.22 252.675,116.696 C267.479,101.864 272.863,79.46 278.068,57.794 C282.515,39.293 291.817,0 312,0 C336,0 384,8 384,81.452 Z" id="Shape"></path>
        </g>
    </g>
</svg>